<?xml version="1.0" encoding="utf-8"?>
<!-- Generator: Adobe Illustrator 19.2.1, SVG Export Plug-In . SVG Version: 6.00 Build 0)  -->
<svg version="1.1" id="layer" xmlns="http://www.w3.org/2000/svg" xmlns:xlink="http://www.w3.org/1999/xlink" x="0px" y="0px"
	 viewBox="0 0 652 652" style="enable-background:new 0 0 652 652;" xml:space="preserve">
<path d="M20,389.9v-138h23.3l10.5,75l2.3,24.8l2.3-24.8l10.5-75H92v138H78.5V276.6l-2.3,18.8l-13.5,94.5H49.3l-13.5-96l-1.5-17.3
	v113.3H20z M113,389.9h15.8v-138H113V389.9z M410,389.9h15.8v-138H410V389.9z M530,327.6h14.3v-15.8H530v-44.3h24v-15.8h-39.8v138
	H554v-15.8h-24V327.6z M374,251.9v114.8c0,4.5-3.8,7.5-7.5,7.5c-4.5,0-7.5-3.8-7.5-7.5V251.9h-16.5v114.8l0,0c0,13.5,10.5,24,24,24
	s24-10.5,24-24V251.9H374z M478.3,366.6v-90.8l0,0c0-4.5-3.8-7.5-7.5-7.5l0,0h-7.5v106.5h7.5l0,0
	C474.5,374.1,478.3,370.4,478.3,366.6L478.3,366.6z M470,251.9c13.5,0,24,10.5,24,24v90.8c0,13.5-10.5,24-24,24h-24V251.9H470
	 M604.3,366.6v-90.8l0,0c0-4.5-3.8-7.5-7.5-7.5l0,0h-7.5v106.5h7.5l0,0C600.5,374.1,604.3,370.4,604.3,366.6L604.3,366.6z
	 M596.8,251.9c12.8,0,23.3,10.5,23.3,24v90.8c0,13.5-10.5,24-24,24h-24V251.9H596.8 M241.3,314.9c-7.5-6.8-13.5-12.8-13.5-24v-15
	c0-4.5,3.8-7.5,7.5-7.5s7.5,3.8,7.5,7.5v15.8h15.8v-15.8c0-13.5-10.5-24-24-24c-13.5,0-24,10.5-24,24l0,0v15.8l0,0
	c1.5,18,12,27.8,19.5,35.3c7.5,6.8,13.5,12.8,13.5,24l0,0v15.8c0,4.5-3.8,7.5-7.5,7.5c-4.5,0-7.5-3.8-7.5-7.5v-23.3h-15.8v23.3
	c0,13.5,10.5,24,24,24c13.5,0,24-10.5,24-24l0,0v-15.8C259.3,332.1,249.5,323.1,241.3,314.9 M176,314.9c-7.5-6.8-13.5-12.8-13.5-24
	v-15c0-4.5,3.8-7.5,7.5-7.5c4.5,0,7.5,3.8,7.5,7.5v15.8h15.8v-15.8c0-13.5-10.5-24-24-24s-24,10.5-24,24l0,0v15.8l0,0
	c0,18,10.5,27.8,18,35.3c7.5,6.8,13.5,12.8,13.5,24l0,0v15.8c0,4.5-3.8,7.5-7.5,7.5s-7.5-3.8-7.5-7.5v-23.3h-14.2v23.3
	c0,13.5,10.5,24,24,24s24-10.5,24-24l0,0v-15.8C194.8,332.1,184.3,323.1,176,314.9 M323.8,290.9v-15c0-13.5-10.5-24-24-24
	s-24,10.5-24,24l0,0v90.8l0,0c0,12.8,10.5,23.3,23.2,24l0,0c7.5,0,13.5-3.8,16.5-10.5l7.5,10.5v-63h-24v15.8h7.5v23.3
	c0,4.5-3,7.5-7.5,7.5l0,0c-4.5,0-7.5-3.8-7.5-7.5v-90.8c0-4.5,3.8-7.5,7.5-7.5s7.5,3.8,7.5,7.5v15.8h17.3V290.9z"/>
</svg>
